<?xml version="1.0" standalone="no"?>
<!DOCTYPE svg PUBLIC "-//W3C//DTD SVG 20010904//EN"
 "http://www.w3.org/TR/2001/REC-SVG-20010904/DTD/svg10.dtd">
<svg version="1.0" xmlns="http://www.w3.org/2000/svg"
 width="3246.000000pt" height="3245.000000pt" viewBox="0 0 3246.000000 3245.000000"
 preserveAspectRatio="xMidYMid meet">

<g transform="translate(0.000000,3245.000000) scale(0.100000,-0.100000)"
fill="#000000" stroke="none">
<path d="M15375 26141 c-1377 -83 -2619 -153 -3115 -175 -786 -35 -1179 -63
-1335 -96 -31 -7 -100 -40 -184 -90 -74 -44 -167 -97 -208 -117 -82 -43 -84
-47 -54 -134 59 -173 143 -263 376 -401 207 -122 267 -161 300 -190 26 -22 42
-28 79 -28 37 0 112 -29 403 -157 311 -135 383 -163 547 -209 104 -28 195 -50
202 -47 8 3 24 -15 40 -44 25 -44 41 -57 147 -118 214 -123 698 -314 897 -354
58 -11 140 -31 182 -42 70 -20 79 -25 96 -58 29 -55 89 -95 232 -150 166 -65
249 -107 325 -164 51 -39 78 -66 139 -145 8 -12 -17 -13 -149 -7 -282 11 -421
40 -795 165 -347 115 -635 229 -1330 525 -1656 705 -2524 1060 -2702 1105 -41
11 -49 18 -70 58 -46 90 -144 139 -325 163 -153 20 -480 -10 -628 -58 -244
-79 -638 -381 -1555 -1193 -140 -124 -336 -295 -435 -380 -249 -215 -435 -392
-830 -792 -365 -370 -406 -408 -885 -808 -363 -304 -504 -429 -576 -512 -44
-52 -62 -65 -144 -100 -138 -59 -193 -98 -310 -221 -266 -281 -888 -905 -943
-947 -34 -25 -97 -70 -140 -100 -97 -66 -144 -118 -197 -220 -48 -94 -51 -92
92 -60 157 34 239 73 468 221 253 162 950 520 1235 632 202 80 330 121 784
252 455 130 558 170 596 228 l25 37 85 0 c133 0 342 33 850 135 589 118 866
158 1405 201 201 17 891 26 904 13 4 -3 -17 -55 -46 -116 l-53 -109 -160 -1
c-465 -1 -1115 -161 -2490 -613 -198 -65 -492 -159 -652 -209 -630 -196 -1032
-356 -1588 -631 -477 -237 -806 -429 -1295 -755 -362 -242 -664 -457 -830
-590 -610 -491 -903 -972 -1024 -1680 -47 -275 -297 -2833 -361 -3690 l-16
-210 -34 -35 c-29 -30 -38 -51 -55 -125 -11 -53 -20 -128 -20 -183 0 -75 -14
-163 -75 -462 l-75 -370 6 -253 c3 -138 7 -262 10 -274 3 -16 35 -37 128 -83
155 -78 183 -79 341 -22 61 22 126 43 145 47 19 4 89 31 155 60 164 71 643
240 908 320 120 36 235 72 255 81 20 8 103 27 185 40 275 46 547 140 685 237
145 102 141 101 356 103 211 3 355 15 526 44 215 37 431 99 540 155 32 17 102
33 242 55 189 30 203 31 330 21 394 -32 791 10 1188 126 449 131 428 129 1210
112 344 -8 1163 -14 1820 -15 1441 -2 1544 -6 2300 -90 1056 -117 2324 -298
2970 -425 304 -60 453 -99 675 -179 598 -215 712 -244 1190 -304 861 -108
1248 -223 1615 -478 285 -198 363 -232 705 -302 604 -125 1618 -424 2120 -626
157 -63 214 -91 370 -177 245 -136 395 -192 750 -278 121 -30 267 -70 324 -90
277 -97 556 -278 906 -589 124 -110 223 -179 580 -406 1172 -744 1794 -1242
2220 -1780 338 -426 503 -629 653 -799 l38 -44 105 5 c184 9 293 63 375 186
23 35 70 127 104 205 95 216 126 273 164 302 20 15 38 37 42 48 11 36 141 255
212 357 122 175 130 188 162 272 17 46 72 234 121 418 l90 335 119 245 c125
259 152 331 169 455 19 136 15 210 -34 620 -33 276 -59 361 -210 675 -108 227
-131 285 -218 550 -65 198 -115 317 -254 595 -159 319 -322 606 -476 838 -51
78 -71 119 -92 190 -35 126 -103 260 -235 467 -131 206 -188 308 -228 410 -37
93 -77 238 -69 246 12 12 156 -64 202 -107 95 -87 272 -400 319 -562 14 -48
30 -96 35 -106 15 -27 59 -40 189 -53 128 -14 132 -17 132 -99 0 -28 13 -63
42 -117 23 -42 43 -79 44 -80 1 -2 29 2 61 8 107 22 175 77 209 171 20 58 20
186 0 269 -22 86 -106 255 -152 305 -49 53 -96 150 -151 308 -100 288 -166
421 -345 695 -72 109 -167 275 -237 411 -135 262 -193 354 -314 501 -180 217
-287 387 -462 733 -69 136 -127 235 -161 277 -61 75 -383 395 -764 758 -259
246 -348 340 -468 492 -92 116 -101 123 -207 169 -55 24 -217 111 -360 193
-248 142 -264 153 -343 236 -46 48 -102 115 -124 149 -38 57 -50 66 -157 124
-64 34 -204 112 -311 174 -350 200 -412 230 -670 325 -89 32 -197 80 -242 106
-118 69 -249 175 -304 244 -59 75 -128 121 -303 201 -378 172 -416 194 -528
313 -40 42 -73 80 -73 85 0 20 126 46 225 45 97 0 104 -2 229 -53 136 -55 248
-85 356 -96 250 -24 500 -109 835 -284 208 -109 390 -217 820 -486 531 -333
659 -405 782 -441 48 -14 63 -27 185 -160 107 -116 154 -159 238 -216 320
-218 590 -450 1028 -883 498 -491 708 -748 772 -945 62 -191 279 -602 638
-1210 99 -168 254 -431 345 -585 91 -154 180 -298 199 -319 33 -38 37 -40 125
-51 l91 -11 6 37 c9 57 -12 280 -39 415 -102 504 -417 1126 -775 1529 -116
130 -174 222 -324 512 -190 369 -263 481 -397 614 -50 50 -72 81 -88 125 -65
172 -215 417 -393 639 -143 179 -255 301 -599 655 -319 328 -387 393 -779 745
-433 388 -699 668 -792 835 -25 44 -25 46 -10 95 l16 50 5 -32 c5 -26 9 -31
21 -23 41 27 162 -3 290 -72 297 -158 1075 -768 1670 -1308 193 -176 792 -764
883 -869 119 -136 400 -499 494 -637 100 -148 312 -484 423 -669 46 -77 98
-154 115 -170 22 -21 67 -43 142 -69 l110 -37 67 -187 c46 -129 71 -218 81
-287 29 -189 58 -271 193 -536 121 -236 180 -422 311 -974 211 -888 401 -1898
465 -2475 69 -612 74 -831 50 -2230 -6 -341 4 -700 22 -807 7 -36 -8 -48 -85
-67 -41 -10 -47 -15 -58 -48 -19 -58 -31 -178 -48 -483 -9 -154 -20 -329 -25
-390 -21 -238 -8 -370 49 -491 34 -72 29 -70 171 -79 70 -4 100 -2 113 7 26
20 149 324 274 678 128 365 187 489 255 536 43 30 81 86 133 195 l36 77 102 6
c56 3 224 11 372 16 450 17 689 39 920 85 389 78 701 229 927 448 111 108 161
223 205 472 28 158 25 733 -5 985 -62 517 -159 899 -246 975 -20 18 -67 91
-116 180 -175 319 -335 580 -755 1235 -494 770 -688 1107 -875 1520 -246 544
-408 1119 -479 1705 -50 405 -77 555 -155 845 -24 91 -79 293 -121 450 -149
559 -233 798 -371 1059 -163 309 -338 515 -699 826 -110 95 -263 228 -341 296
-1033 910 -1102 963 -1909 1469 -602 377 -822 538 -1123 820 -416 389 -484
444 -977 775 -137 93 -638 433 -1112 757 -800 547 -862 592 -877 629 -9 22
-16 46 -16 54 0 15 -96 92 -145 117 -16 8 -61 23 -98 32 -41 10 -184 72 -350
152 l-282 135 -40 56 c-65 90 -160 170 -376 315 -112 75 -232 162 -266 193
-34 30 -120 129 -192 218 -166 207 -236 266 -382 321 -203 76 -969 198 -1779
282 -428 44 -334 48 -2865 -105z"/>
</g>
</svg>
