<?xml version="1.0" standalone="no"?>
<!DOCTYPE svg PUBLIC "-//W3C//DTD SVG 20010904//EN"
 "http://www.w3.org/TR/2001/REC-SVG-20010904/DTD/svg10.dtd">
<svg version="1.0" xmlns="http://www.w3.org/2000/svg"
 width="2666.000000pt" height="690.000000pt" viewBox="0 0 2666.000000 690.000000"
 preserveAspectRatio="xMidYMid meet">

<g transform="translate(0.000000,690.000000) scale(0.100000,-0.100000)"
fill="#000000" stroke="none">
<path d="M25215 6885 c-5 -2 -113 -9 -240 -15 -292 -15 -323 -27 -249 -96 19
-19 34 -34 32 -34 -2 0 -42 17 -88 37 -47 20 -100 36 -117 37 -45 0 -112 -49
-263 -190 -69 -64 -141 -128 -160 -142 -46 -34 -160 -151 -160 -163 0 -14 31
-3 120 41 78 38 178 72 268 90 103 20 85 9 -63 -40 -273 -90 -445 -213 -469
-335 -3 -16 -13 -100 -21 -186 -8 -86 -20 -180 -25 -209 -6 -29 -10 -70 -10
-91 0 -34 4 -40 27 -45 14 -4 40 -1 57 5 44 18 202 67 258 80 109 25 251 36
448 33 226 -2 397 -21 535 -57 50 -13 116 -28 147 -34 32 -6 81 -21 110 -35
29 -13 88 -34 131 -46 42 -11 94 -28 115 -37 20 -9 64 -26 97 -38 86 -32 246
-146 349 -248 79 -80 91 -88 111 -79 50 23 142 235 131 303 -7 43 -57 167 -91
225 -27 45 -33 71 -11 41 15 -19 41 -14 50 10 8 21 -50 141 -117 243 -81 125
-201 236 -316 294 -27 14 -67 37 -88 52 -53 37 -13 24 104 -33 131 -65 253
-180 318 -300 60 -110 83 -143 101 -143 19 0 18 50 -1 96 -31 75 -170 272
-249 353 -47 49 -67 74 -47 61 63 -43 162 -137 202 -191 22 -30 52 -70 66 -88
33 -43 66 -134 95 -266 18 -81 23 -131 23 -260 0 -88 -2 -188 -5 -223 -4 -47
-2 -65 9 -71 24 -15 36 -3 64 63 l28 63 68 5 c82 6 146 38 156 77 10 38 7 144
-4 174 -5 14 -40 74 -77 134 -89 143 -108 188 -133 316 -35 174 -50 205 -143
292 -45 41 -122 103 -172 137 -50 34 -107 76 -127 94 -21 18 -79 60 -130 94
-52 34 -99 68 -104 75 -6 7 -28 21 -50 33 -22 11 -64 41 -93 66 -58 50 -61 51
-152 66 -61 9 -223 13 -245 5z m-360 -175 c8 -13 -5 -13 -25 0 -13 8 -13 10 2
10 9 0 20 -4 23 -10z"/>
<path d="M22745 6637 c-407 -140 -779 -206 -1326 -233 l-126 -6 -18 -56 c-10
-32 -20 -63 -22 -69 -4 -9 9 -13 45 -13 129 0 272 -33 330 -77 77 -58 98 -188
54 -343 -11 -41 -260 -869 -552 -1840 -292 -971 -543 -1821 -557 -1890 -22
-103 -26 -153 -27 -285 -1 -230 32 -337 141 -455 109 -118 253 -165 488 -157
255 8 427 77 601 240 139 129 207 260 343 657 50 146 91 271 91 278 0 9 -17
12 -61 10 l-61 -3 -97 -260 c-120 -321 -165 -409 -247 -493 -102 -102 -199
-130 -265 -75 -60 51 -74 134 -44 262 9 35 333 1137 721 2448 388 1312 704
2388 702 2391 -2 4 -52 -10 -113 -31z"/>
<path d="M6417 6519 c-238 -58 -427 -241 -473 -458 -44 -208 10 -378 148 -471
178 -119 485 -116 706 7 80 44 184 141 233 217 126 193 124 451 -5 593 -45 50
-133 98 -217 118 -93 22 -293 19 -392 -6z"/>
<path d="M2165 4079 c-798 -1122 -1487 -2089 -1533 -2147 -112 -146 -245 -287
-334 -354 -72 -56 -189 -120 -240 -133 -23 -6 -27 -14 -38 -71 -7 -36 -11 -66
-9 -68 2 -2 49 1 104 6 102 10 1066 3 1177 -8 l57 -6 10 39 c6 21 13 53 17 70
l6 30 -79 7 c-177 14 -336 72 -411 147 -110 111 -93 305 46 532 26 42 191 282
367 532 l320 454 732 1 732 0 5 -32 c8 -52 57 -1063 56 -1169 0 -123 -13 -189
-51 -266 -35 -72 -81 -110 -181 -147 -71 -27 -228 -56 -300 -56 -52 0 -47 7
-67 -90 -6 -24 -9 -45 -8 -46 1 -1 97 2 212 8 217 10 1679 4 1746 -8 l36 -6
11 58 c16 78 15 84 -10 84 -38 0 -120 44 -174 93 -65 59 -100 134 -119 263 -9
55 -74 1035 -146 2179 -71 1144 -132 2095 -135 2113 l-5 32 -172 0 -173 0
-1449 -2041z m875 58 c26 -485 46 -883 45 -885 -1 -1 -306 -1 -678 0 l-677 3
627 887 c345 488 629 885 632 882 3 -2 26 -402 51 -887z"/>
<path d="M12997 5175 c-82 -17 -201 -67 -282 -120 -33 -21 -106 -85 -163 -142
l-103 -104 -62 20 c-280 86 -741 73 -1067 -31 -565 -180 -979 -650 -1041
-1182 -30 -259 50 -492 215 -628 168 -136 464 -228 741 -228 65 0 105 -4 100
-9 -6 -5 -68 -35 -140 -67 -245 -109 -560 -273 -684 -354 -155 -103 -273 -218
-318 -310 -62 -127 -65 -259 -8 -377 34 -69 136 -161 228 -207 47 -23 246 -85
577 -181 532 -153 663 -194 745 -231 56 -24 98 -65 114 -107 28 -73 1 -214
-59 -306 -41 -65 -156 -174 -247 -234 -319 -212 -824 -311 -1105 -216 -254 85
-341 302 -220 548 46 94 138 189 264 272 51 33 94 62 96 64 2 1 -2 24 -9 50
l-12 47 -76 -6 c-216 -19 -612 -124 -793 -210 -234 -111 -368 -255 -368 -397
0 -89 25 -145 94 -215 156 -155 464 -259 876 -295 167 -14 519 -7 690 16 741
96 1346 427 1550 850 51 104 72 197 73 315 1 184 -43 291 -173 420 -152 151
-279 210 -863 406 -235 79 -457 157 -492 174 -66 32 -101 65 -112 109 -10 38
33 109 99 161 113 90 553 307 668 329 101 20 286 84 386 134 465 233 782 643
835 1080 20 164 -8 347 -73 470 -40 77 -153 192 -231 236 l-57 33 40 48 c48
58 101 106 160 147 48 33 183 103 199 103 5 0 -2 -35 -16 -77 -65 -207 -24
-426 99 -526 66 -53 107 -70 184 -75 l72 -4 -23 -53 c-13 -28 -65 -173 -115
-321 -51 -148 -95 -275 -97 -281 -4 -10 12 -13 60 -13 l64 0 83 223 c162 434
227 540 378 614 42 20 62 25 102 21 94 -9 133 -77 111 -193 -6 -36 -171 -550
-366 -1142 -195 -593 -366 -1125 -380 -1183 -32 -129 -43 -312 -26 -417 27
-158 119 -284 254 -349 188 -89 507 -86 748 7 388 150 731 581 1064 1341 38
87 70 156 72 155 1 -2 -36 -151 -82 -332 -124 -483 -155 -671 -136 -826 16
-120 45 -185 115 -254 112 -110 236 -155 431 -155 180 0 319 34 479 118 155
82 279 219 366 405 31 66 250 664 250 683 0 2 -28 4 -63 4 l-63 0 -74 -202
c-167 -459 -242 -589 -379 -654 -52 -25 -140 -30 -179 -10 -39 20 -46 47 -39
140 7 88 -29 -47 463 1710 228 813 413 1481 410 1483 -2 2 -53 -5 -112 -17
-156 -29 -344 -48 -620 -62 l-242 -12 -57 -220 c-309 -1196 -884 -2461 -1309
-2881 -158 -156 -307 -195 -373 -96 -28 41 -31 140 -8 241 9 36 166 517 350
1070 183 553 346 1059 361 1125 24 104 28 142 28 285 1 148 -1 172 -22 233
-84 241 -277 346 -616 334 -170 -6 -266 -30 -426 -110 -58 -28 -108 -53 -111
-55 -3 -1 -8 38 -11 87 -14 241 -177 383 -438 380 -47 0 -115 -7 -153 -14z
m-1068 -445 c33 -23 54 -63 78 -151 24 -87 24 -463 0 -658 -53 -424 -165 -733
-332 -919 -81 -90 -211 -138 -320 -118 -52 10 -110 66 -137 134 -22 54 -23 69
-22 312 0 275 15 413 69 654 86 384 239 662 412 750 74 37 197 36 252 -4z"/>
<path d="M5850 4874 c-198 -42 -363 -121 -475 -226 -139 -130 -194 -235 -339
-639 -57 -162 -108 -302 -111 -311 -6 -16 0 -18 58 -18 l65 0 82 223 c113 305
192 467 270 550 75 81 139 111 217 105 85 -7 98 -27 98 -141 0 -91 -7 -116
-448 -1692 -246 -880 -466 -1658 -489 -1729 -48 -151 -156 -372 -228 -468 -28
-36 -87 -101 -132 -143 -138 -130 -285 -201 -472 -228 l-90 -12 -12 -55 c-7
-30 -13 -56 -14 -57 -1 -7 187 -2 290 8 398 36 738 153 992 341 99 73 258 226
340 325 225 275 379 612 523 1148 29 110 171 619 314 1130 303 1086 298 1068
317 1205 27 204 16 336 -36 447 -59 128 -166 206 -322 238 -96 19 -309 19
-398 -1z"/>
<path d="M8426 4875 c-277 -57 -579 -239 -856 -515 -529 -528 -939 -1328
-1036 -2025 -23 -165 -23 -413 0 -530 48 -247 171 -427 351 -516 129 -63 185
-74 380 -74 197 0 265 15 420 90 259 125 447 326 633 680 40 77 71 129 68 115
-42 -201 -52 -425 -22 -525 57 -191 186 -308 387 -351 104 -22 316 -14 419 16
99 28 260 106 334 161 86 65 177 185 246 324 52 106 240 623 240 661 0 10 -16
14 -59 14 -47 0 -60 -4 -66 -17 -4 -10 -40 -108 -82 -218 -126 -337 -177 -438
-264 -525 -73 -73 -138 -103 -208 -98 -99 9 -124 68 -98 227 10 56 203 731
460 1606 245 831 443 1511 442 1513 -2 2 -52 -6 -111 -17 -160 -30 -316 -49
-519 -61 -99 -7 -218 -15 -264 -18 l-84 -7 -37 -130 c-20 -71 -40 -143 -45
-160 -7 -27 -9 -24 -21 40 -28 146 -113 262 -234 319 -60 29 -74 31 -185 33
-73 1 -147 -3 -189 -12z m410 -251 c87 -41 135 -155 136 -322 0 -102 -1 -105
-138 -596 -77 -272 -141 -493 -144 -491 -3 2 -16 -35 -30 -83 -107 -393 -285
-829 -444 -1092 -228 -375 -469 -548 -606 -433 -70 58 -92 158 -91 410 0 100
5 230 11 290 75 770 448 1688 866 2132 90 96 155 146 232 177 69 28 158 32
208 8z"/>
<path d="M17725 4879 c-152 -29 -299 -100 -409 -198 -63 -57 -150 -182 -204
-293 -38 -77 -262 -680 -262 -704 0 -2 28 -4 63 -4 l62 0 80 213 c43 116 101
262 127 322 104 237 216 345 356 345 122 0 150 -96 87 -298 -36 -117 -825
-2937 -825 -2951 0 -8 125 -11 474 -11 l473 0 42 163 c100 383 250 837 426
1282 367 931 802 1646 1081 1777 104 49 196 40 224 -21 19 -41 24 -132 11
-207 -7 -38 -169 -541 -361 -1119 -382 -1148 -400 -1213 -400 -1411 0 -187 43
-307 144 -402 117 -111 276 -158 510 -149 167 5 262 30 423 108 166 80 296
221 387 421 37 81 226 620 226 644 0 23 -116 20 -125 -3 -4 -10 -40 -108 -81
-218 -104 -278 -189 -449 -258 -518 -166 -166 -349 -135 -333 57 3 44 106 367
366 1153 199 601 373 1141 387 1200 31 131 43 365 25 455 -25 117 -99 229
-191 288 -90 58 -186 82 -351 87 -214 8 -363 -19 -537 -98 -204 -92 -425 -307
-614 -599 -142 -218 -291 -511 -439 -857 -40 -95 -74 -171 -76 -169 -2 2 42
178 98 392 122 471 137 543 148 702 10 149 -1 262 -33 342 -85 210 -239 292
-543 289 -70 -1 -150 -5 -178 -10z"/>
<path d="M24140 4875 c-307 -69 -594 -247 -890 -551 -441 -454 -790 -1081
-944 -1691 -59 -236 -71 -333 -71 -573 0 -191 3 -225 23 -305 70 -276 232
-452 482 -522 52 -14 100 -18 240 -17 162 0 182 2 264 28 178 54 368 175 504
321 90 97 196 253 284 418 47 89 68 121 63 97 -68 -383 -40 -576 104 -721 166
-166 498 -199 798 -79 227 91 370 232 483 473 30 64 230 623 230 643 0 2 -29
4 -63 4 l-64 0 -82 -223 c-115 -310 -184 -450 -264 -530 -71 -72 -135 -107
-196 -107 -112 0 -146 80 -111 258 8 41 619 2136 897 3076 5 17 2 18 -28 12
-206 -42 -456 -71 -744 -86 -109 -6 -200 -12 -202 -14 -2 -1 -23 -72 -47 -157
-37 -131 -45 -150 -51 -124 -48 199 -108 286 -245 352 -49 24 -69 27 -180 30
-83 2 -147 -2 -190 -12z m403 -249 c45 -18 91 -74 117 -143 19 -48 23 -79 24
-178 l1 -120 -139 -490 c-77 -269 -143 -492 -146 -495 -4 -3 -24 -63 -45 -135
-230 -794 -592 -1404 -879 -1485 -130 -36 -210 41 -237 229 -24 170 -1 543 52
826 161 873 674 1830 1064 1988 49 20 145 22 188 3z"/>
</g>
</svg>
